<svg xmlns="http://www.w3.org/2000/svg" version="1.1" xmlns:xlink="http://www.w3.org/1999/xlink" xmlns:svgjs="http://svgjs.com/svgjs" width="512" height="512" x="0" y="0" viewBox="0 0 682.66669 682.66669" style="enable-background:new 0 0 512 512" xml:space="preserve" class=""><g><defs id="defs511"><clipPath clipPathUnits="userSpaceOnUse" id="clipPath525"><path d="M 0,512 H 512 V 0 H 0 Z" id="path523" fill="#060911" data-original="#000000" class=""></path></clipPath></defs><g id="g513" transform="matrix(1.3333333,0,0,-1.3333333,0,682.66667)"><g id="g515" transform="translate(154.1958,358.0001)"><path d="M 0,0 V -40" style="stroke-width:20;stroke-linecap:round;stroke-linejoin:round;stroke-miterlimit:10;stroke-dasharray:none;stroke-opacity:1" id="path517" fill="none" stroke="#060911" stroke-width="20" stroke-linecap="round" stroke-linejoin="round" stroke-miterlimit="10" stroke-dasharray="none" stroke-opacity="" data-original="#000000" class=""></path></g><g id="g519"><g id="g521" clip-path="url(#clipPath525)"><g id="g527" transform="translate(125.9109,450.7394)"><path d="M 0,0 C 0,-21.586 11.294,-40.523 28.285,-51.261 45.276,-40.523 56.57,-21.586 56.57,0 56.57,21.586 45.276,40.523 28.285,51.261 11.294,40.523 0,21.586 0,0 Z" style="stroke-width:20;stroke-linecap:round;stroke-linejoin:round;stroke-miterlimit:10;stroke-dasharray:none;stroke-opacity:1" id="path529" fill="none" stroke="#060911" stroke-width="20" stroke-linecap="round" stroke-linejoin="round" stroke-miterlimit="10" stroke-dasharray="none" stroke-opacity="" data-original="#000000" class=""></path></g><g id="g531" transform="translate(171.9383,415.7391)"><path d="m 0,0 c -15.264,-15.264 -20.668,-36.64 -16.246,-56.247 19.607,-4.422 40.983,0.983 56.247,16.246 15.263,15.264 20.668,36.64 16.246,56.247 C 36.64,20.668 15.264,15.264 0,0 Z" style="stroke-width:20;stroke-linecap:round;stroke-linejoin:round;stroke-miterlimit:10;stroke-dasharray:none;stroke-opacity:1" id="path533" fill="none" stroke="#060911" stroke-width="20" stroke-linecap="round" stroke-linejoin="round" stroke-miterlimit="10" stroke-dasharray="none" stroke-opacity="" data-original="#000000" class=""></path></g><g id="g535" transform="translate(136.453,415.7391)"><path d="m 0,0 c 15.264,-15.264 20.668,-36.64 16.246,-56.247 -19.607,-4.422 -40.983,0.983 -56.247,16.246 -15.263,15.264 -20.668,36.64 -16.246,56.247 C -36.64,20.668 -15.264,15.264 0,0 Z" style="stroke-width:20;stroke-linecap:round;stroke-linejoin:round;stroke-miterlimit:10;stroke-dasharray:none;stroke-opacity:1" id="path537" fill="none" stroke="#060911" stroke-width="20" stroke-linecap="round" stroke-linejoin="round" stroke-miterlimit="10" stroke-dasharray="none" stroke-opacity="" data-original="#000000" class=""></path></g><g id="g539" transform="translate(357.8045,358.0001)"><path d="M 0,0 V -40" style="stroke-width:20;stroke-linecap:round;stroke-linejoin:round;stroke-miterlimit:10;stroke-dasharray:none;stroke-opacity:1" id="path541" fill="none" stroke="#060911" stroke-width="20" stroke-linecap="round" stroke-linejoin="round" stroke-miterlimit="10" stroke-dasharray="none" stroke-opacity="" data-original="#000000" class=""></path></g><g id="g543" transform="translate(329.5195,450.7394)"><path d="M 0,0 C 0,-21.586 11.294,-40.523 28.285,-51.261 45.276,-40.523 56.57,-21.586 56.57,0 56.57,21.586 45.276,40.523 28.285,51.261 11.294,40.523 0,21.586 0,0 Z" style="stroke-width:20;stroke-linecap:round;stroke-linejoin:round;stroke-miterlimit:10;stroke-dasharray:none;stroke-opacity:1" id="path545" fill="none" stroke="#060911" stroke-width="20" stroke-linecap="round" stroke-linejoin="round" stroke-miterlimit="10" stroke-dasharray="none" stroke-opacity="" data-original="#000000" class=""></path></g><g id="g547" transform="translate(375.547,415.7391)"><path d="m 0,0 c -15.264,-15.264 -20.668,-36.64 -16.246,-56.247 19.607,-4.422 40.983,0.983 56.247,16.246 15.263,15.264 20.668,36.64 16.246,56.247 C 36.64,20.668 15.264,15.264 0,0 Z" style="stroke-width:20;stroke-linecap:round;stroke-linejoin:round;stroke-miterlimit:10;stroke-dasharray:none;stroke-opacity:1" id="path549" fill="none" stroke="#060911" stroke-width="20" stroke-linecap="round" stroke-linejoin="round" stroke-miterlimit="10" stroke-dasharray="none" stroke-opacity="" data-original="#000000" class=""></path></g><g id="g551" transform="translate(340.0617,415.7391)"><path d="m 0,0 c 15.264,-15.264 20.668,-36.64 16.246,-56.247 -19.607,-4.422 -40.983,0.983 -56.247,16.246 -15.263,15.264 -20.668,36.64 -16.246,56.247 C -36.64,20.668 -15.264,15.264 0,0 Z" style="stroke-width:20;stroke-linecap:round;stroke-linejoin:round;stroke-miterlimit:10;stroke-dasharray:none;stroke-opacity:1" id="path553" fill="none" stroke="#060911" stroke-width="20" stroke-linecap="round" stroke-linejoin="round" stroke-miterlimit="10" stroke-dasharray="none" stroke-opacity="" data-original="#000000" class=""></path></g><g id="g555" transform="translate(452.9269,161.7642)"><path d="m 0,0 c -11.88,-13.869 -29.507,-22.669 -49.2,-22.669 -19.693,0 -37.32,8.8 -49.2,22.669 -11.88,-13.869 -29.507,-22.669 -49.2,-22.669 -19.693,0 -37.32,8.8 -49.2,22.669 -11.88,-13.869 -29.507,-22.669 -49.2,-22.669 -19.693,0 -37.32,8.8 -49.2,22.669 -11.88,-13.869 -29.507,-22.669 -49.2,-22.669 -19.693,0 -37.32,8.8 -49.2,22.669" style="stroke-width:20;stroke-linecap:round;stroke-linejoin:round;stroke-miterlimit:10;stroke-dasharray:none;stroke-opacity:1" id="path557" fill="none" stroke="#060911" stroke-width="20" stroke-linecap="round" stroke-linejoin="round" stroke-miterlimit="10" stroke-dasharray="none" stroke-opacity="" data-original="#000000" class=""></path></g><g id="g559" transform="translate(216,318.0001)"><path d="M 0,0 H -114.5 C -165.034,0 -206,-40.966 -206,-91.5 V -96 c 11.88,-13.869 29.507,-22.669 49.2,-22.669 19.693,0 37.32,8.8 49.2,22.669 11.88,-13.869 29.507,-22.669 49.2,-22.669 19.693,0 37.32,8.8 49.2,22.669 11.88,-13.869 29.507,-22.669 49.2,-22.669 19.693,0 37.32,8.8 49.2,22.669 11.88,-13.869 29.507,-22.669 49.2,-22.669 19.693,0 37.32,8.8 49.2,22.669 11.88,-13.869 29.507,-22.669 49.2,-22.669 19.693,0 37.32,8.8 49.2,22.669 v 4.5 C 286,-40.966 245.034,0 194.5,0 H 80" style="stroke-width:20;stroke-linecap:round;stroke-linejoin:round;stroke-miterlimit:10;stroke-dasharray:none;stroke-opacity:1" id="path561" fill="none" stroke="#060911" stroke-width="20" stroke-linecap="round" stroke-linejoin="round" stroke-miterlimit="10" stroke-dasharray="none" stroke-opacity="" data-original="#000000" class=""></path></g><g id="g563" transform="translate(118.13,82.1813)"><path d="m 0,0 c -28.741,0 -54.135,-14.267 -69.537,-36.091 15.402,-21.823 40.796,-36.09 69.537,-36.09 28.741,0 54.135,14.267 69.537,36.09 C 54.135,-14.267 28.741,0 0,0 Z" style="stroke-width:20;stroke-linecap:round;stroke-linejoin:round;stroke-miterlimit:10;stroke-dasharray:none;stroke-opacity:1" id="path565" fill="none" stroke="#060911" stroke-width="20" stroke-linecap="round" stroke-linejoin="round" stroke-miterlimit="10" stroke-dasharray="none" stroke-opacity="" data-original="#000000" class=""></path></g><g id="g567" transform="translate(15.3681,79.3157)"><path d="M 0,0 33.225,-33.225 0,-66.45 c -1.981,-1.981 -5.368,-0.578 -5.368,2.223 V -2.224 C -5.368,0.578 -1.981,1.981 0,0 Z" style="stroke-width:20;stroke-linecap:round;stroke-linejoin:round;stroke-miterlimit:10;stroke-dasharray:none;stroke-opacity:1" id="path569" fill="none" stroke="#060911" stroke-width="20" stroke-linecap="round" stroke-linejoin="round" stroke-miterlimit="10" stroke-dasharray="none" stroke-opacity="" data-original="#000000" class=""></path></g><g id="g571" transform="translate(154.5024,20.5707)"><path d="M 0,0 C -14.094,14.094 -14.094,36.946 0,51.04" style="stroke-width:20;stroke-linecap:round;stroke-linejoin:round;stroke-miterlimit:10;stroke-dasharray:none;stroke-opacity:1" id="path573" fill="none" stroke="#060911" stroke-width="20" stroke-linecap="round" stroke-linejoin="round" stroke-miterlimit="10" stroke-dasharray="none" stroke-opacity="" data-original="#000000" class=""></path></g><g id="g575" transform="translate(213.6667,74.9141)"><path d="M 0,0 V 0" style="stroke-width:20;stroke-linecap:round;stroke-linejoin:round;stroke-miterlimit:10;stroke-dasharray:none;stroke-opacity:1" id="path577" fill="none" stroke="#060911" stroke-width="20" stroke-linecap="round" stroke-linejoin="round" stroke-miterlimit="10" stroke-dasharray="none" stroke-opacity="" data-original="#000000" class=""></path></g><g id="g579" transform="translate(242.3333,108)"><path d="M 0,0 V 0" style="stroke-width:20;stroke-linecap:round;stroke-linejoin:round;stroke-miterlimit:10;stroke-dasharray:none;stroke-opacity:1" id="path581" fill="none" stroke="#060911" stroke-width="20" stroke-linecap="round" stroke-linejoin="round" stroke-miterlimit="10" stroke-dasharray="none" stroke-opacity="" data-original="#000000" class=""></path></g><g id="g583" transform="translate(377.7966,82.1813)"><path d="m 0,0 c -28.741,0 -54.135,-14.267 -69.537,-36.091 15.402,-21.823 40.796,-36.09 69.537,-36.09 28.741,0 54.135,14.267 69.537,36.09 C 54.135,-14.267 28.741,0 0,0 Z" style="stroke-width:20;stroke-linecap:round;stroke-linejoin:round;stroke-miterlimit:10;stroke-dasharray:none;stroke-opacity:1" id="path585" fill="none" stroke="#060911" stroke-width="20" stroke-linecap="round" stroke-linejoin="round" stroke-miterlimit="10" stroke-dasharray="none" stroke-opacity="" data-original="#000000" class=""></path></g><g id="g587" transform="translate(275.0348,79.3157)"><path d="M 0,0 33.225,-33.225 0,-66.45 c -1.981,-1.981 -5.368,-0.578 -5.368,2.223 V -2.224 C -5.368,0.578 -1.981,1.981 0,0 Z" style="stroke-width:20;stroke-linecap:round;stroke-linejoin:round;stroke-miterlimit:10;stroke-dasharray:none;stroke-opacity:1" id="path589" fill="none" stroke="#060911" stroke-width="20" stroke-linecap="round" stroke-linejoin="round" stroke-miterlimit="10" stroke-dasharray="none" stroke-opacity="" data-original="#000000" class=""></path></g><g id="g591" transform="translate(414.169,20.5707)"><path d="M 0,0 C -14.094,14.094 -14.094,36.946 0,51.04" style="stroke-width:20;stroke-linecap:round;stroke-linejoin:round;stroke-miterlimit:10;stroke-dasharray:none;stroke-opacity:1" id="path593" fill="none" stroke="#060911" stroke-width="20" stroke-linecap="round" stroke-linejoin="round" stroke-miterlimit="10" stroke-dasharray="none" stroke-opacity="" data-original="#000000" class=""></path></g><g id="g595" transform="translate(473.3333,74.9141)"><path d="M 0,0 V 0" style="stroke-width:20;stroke-linecap:round;stroke-linejoin:round;stroke-miterlimit:10;stroke-dasharray:none;stroke-opacity:1" id="path597" fill="none" stroke="#060911" stroke-width="20" stroke-linecap="round" stroke-linejoin="round" stroke-miterlimit="10" stroke-dasharray="none" stroke-opacity="" data-original="#000000" class=""></path></g><g id="g599" transform="translate(502,108)"><path d="M 0,0 V 0" style="stroke-width:20;stroke-linecap:round;stroke-linejoin:round;stroke-miterlimit:10;stroke-dasharray:none;stroke-opacity:1" id="path601" fill="none" stroke="#060911" stroke-width="20" stroke-linecap="round" stroke-linejoin="round" stroke-miterlimit="10" stroke-dasharray="none" stroke-opacity="" data-original="#000000" class=""></path></g><g id="g603" transform="translate(256,318.0001)"><path d="M 0,0 V 0" style="stroke-width:20;stroke-linecap:round;stroke-linejoin:round;stroke-miterlimit:10;stroke-dasharray:none;stroke-opacity:1" id="path605" fill="none" stroke="#060911" stroke-width="20" stroke-linecap="round" stroke-linejoin="round" stroke-miterlimit="10" stroke-dasharray="none" stroke-opacity="" data-original="#000000" class=""></path></g></g></g></g></g></svg>