<svg xmlns="http://www.w3.org/2000/svg" version="1.1" xmlns:xlink="http://www.w3.org/1999/xlink" xmlns:svgjs="http://svgjs.com/svgjs" width="512" height="512" x="0" y="0" viewBox="0 0 682.66669 682.66669" style="enable-background:new 0 0 512 512" xml:space="preserve" class=""><g><defs id="defs1108"><clipPath clipPathUnits="userSpaceOnUse" id="clipPath1118"><path d="M 0,512 H 512 V 0 H 0 Z" id="path1116" fill="#060911" data-original="#000000" class=""></path></clipPath></defs><g id="g1110" transform="matrix(1.3333333,0,0,-1.3333333,0,682.66667)"><g id="g1112"><g id="g1114" clip-path="url(#clipPath1118)"><g id="g1120" transform="translate(336.9869,10)"><path d="m 0,0 v 0 c 0,136.344 -110.529,246.873 -246.873,246.873 h -80.114" style="stroke-width:20;stroke-linecap:round;stroke-linejoin:round;stroke-miterlimit:10;stroke-dasharray:none;stroke-opacity:1" id="path1122" fill="none" stroke="#060911" stroke-width="20" stroke-linecap="round" stroke-linejoin="round" stroke-miterlimit="10" stroke-dasharray="none" stroke-opacity="" data-original="#000000" class=""></path></g><g id="g1124" transform="translate(256.9869,10)"><path d="m 0,0 c 0,92.014 -74.859,166.873 -166.873,166.873 h -80.114" style="stroke-width:20;stroke-linecap:round;stroke-linejoin:round;stroke-miterlimit:10;stroke-dasharray:none;stroke-opacity:1" id="path1126" fill="none" stroke="#060911" stroke-width="20" stroke-linecap="round" stroke-linejoin="round" stroke-miterlimit="10" stroke-dasharray="none" stroke-opacity="" data-original="#000000" class=""></path></g><g id="g1128" transform="translate(176.9869,10)"><path d="m 0,0 c 0,47.902 -38.971,86.873 -86.873,86.873 h -80.114" style="stroke-width:20;stroke-linecap:round;stroke-linejoin:round;stroke-miterlimit:10;stroke-dasharray:none;stroke-opacity:1" id="path1130" fill="none" stroke="#060911" stroke-width="20" stroke-linecap="round" stroke-linejoin="round" stroke-miterlimit="10" stroke-dasharray="none" stroke-opacity="" data-original="#000000" class=""></path></g><g id="g1132" transform="translate(256.9841,191.9327)"><path d="m 0,0 c 43.941,40.326 102.534,64.94 166.876,64.94 h 78.14" style="stroke-width:20;stroke-linecap:round;stroke-linejoin:round;stroke-miterlimit:10;stroke-dasharray:none;stroke-opacity:1" id="path1134" fill="none" stroke="#060911" stroke-width="20" stroke-linecap="round" stroke-linejoin="round" stroke-miterlimit="10" stroke-dasharray="none" stroke-opacity="" data-original="#000000" class=""></path></g><g id="g1136" transform="translate(502,176.873)"><path d="M 0,0 V 0" style="stroke-width:20;stroke-linecap:round;stroke-linejoin:round;stroke-miterlimit:10;stroke-dasharray:none;stroke-opacity:1" id="path1138" fill="none" stroke="#060911" stroke-width="20" stroke-linecap="round" stroke-linejoin="round" stroke-miterlimit="10" stroke-dasharray="none" stroke-opacity="" data-original="#000000" class=""></path></g><g id="g1140" transform="translate(306.6433,128.6626)"><path d="m 0,0 c 30.157,29.793 71.577,48.21 117.217,48.21 h 38.14" style="stroke-width:20;stroke-linecap:round;stroke-linejoin:round;stroke-miterlimit:10;stroke-dasharray:none;stroke-opacity:1" id="path1142" fill="none" stroke="#060911" stroke-width="20" stroke-linecap="round" stroke-linejoin="round" stroke-miterlimit="10" stroke-dasharray="none" stroke-opacity="" data-original="#000000" class=""></path></g><g id="g1144" transform="translate(336.9869,10)"><path d="m 0,0 c 0,47.902 38.971,86.873 86.873,86.873 h 78.14" style="stroke-width:20;stroke-linecap:round;stroke-linejoin:round;stroke-miterlimit:10;stroke-dasharray:none;stroke-opacity:1" id="path1146" fill="none" stroke="#060911" stroke-width="20" stroke-linecap="round" stroke-linejoin="round" stroke-miterlimit="10" stroke-dasharray="none" stroke-opacity="" data-original="#000000" class=""></path></g><g id="g1148" transform="translate(256.0002,297.5095)"><path d="M 0,0 V -100.509" style="stroke-width:20;stroke-linecap:round;stroke-linejoin:round;stroke-miterlimit:10;stroke-dasharray:none;stroke-opacity:1" id="path1150" fill="none" stroke="#060911" stroke-width="20" stroke-linecap="round" stroke-linejoin="round" stroke-miterlimit="10" stroke-dasharray="none" stroke-opacity="" data-original="#000000" class=""></path></g><g id="g1152" transform="translate(215.8335,429.2061)"><path d="M 0,0 C 0,-30.654 16.038,-57.545 40.167,-72.794 64.295,-57.545 80.333,-30.654 80.333,0 80.333,30.654 64.295,57.546 40.167,72.794 16.038,57.546 0,30.654 0,0 Z" style="stroke-width:20;stroke-linecap:round;stroke-linejoin:round;stroke-miterlimit:10;stroke-dasharray:none;stroke-opacity:1" id="path1154" fill="none" stroke="#060911" stroke-width="20" stroke-linecap="round" stroke-linejoin="round" stroke-miterlimit="10" stroke-dasharray="none" stroke-opacity="" data-original="#000000" class=""></path></g><g id="g1156" transform="translate(281.1959,379.5031)"><path d="m 0,0 c -21.675,-21.675 -29.35,-52.031 -23.071,-79.875 27.844,-6.279 58.2,1.396 79.875,23.071 21.675,21.675 29.35,52.031 23.071,79.875 C 52.031,29.35 21.675,21.675 0,0 Z" style="stroke-width:20;stroke-linecap:round;stroke-linejoin:round;stroke-miterlimit:10;stroke-dasharray:none;stroke-opacity:1" id="path1158" fill="none" stroke="#060911" stroke-width="20" stroke-linecap="round" stroke-linejoin="round" stroke-miterlimit="10" stroke-dasharray="none" stroke-opacity="" data-original="#000000" class=""></path></g><g id="g1160" transform="translate(230.8042,379.5031)"><path d="m 0,0 c 21.675,-21.675 29.35,-52.031 23.071,-79.875 -27.844,-6.279 -58.2,1.396 -79.875,23.071 -21.675,21.675 -29.35,52.031 -23.071,79.875 C -52.031,29.35 -21.675,21.675 0,0 Z" style="stroke-width:20;stroke-linecap:round;stroke-linejoin:round;stroke-miterlimit:10;stroke-dasharray:none;stroke-opacity:1" id="path1162" fill="none" stroke="#060911" stroke-width="20" stroke-linecap="round" stroke-linejoin="round" stroke-miterlimit="10" stroke-dasharray="none" stroke-opacity="" data-original="#000000" class=""></path></g><g id="g1164" transform="translate(456.8685,302.0046)"><path d="m 0,0 c -11.931,-11.931 -16.155,-28.639 -12.699,-43.965 15.326,-3.457 32.035,0.768 43.965,12.699 11.931,11.93 16.156,28.639 12.699,43.965 C 28.639,16.155 11.931,11.931 0,0 Z" style="stroke-width:20;stroke-linecap:round;stroke-linejoin:round;stroke-miterlimit:10;stroke-dasharray:none;stroke-opacity:1" id="path1166" fill="none" stroke="#060911" stroke-width="20" stroke-linecap="round" stroke-linejoin="round" stroke-miterlimit="10" stroke-dasharray="none" stroke-opacity="" data-original="#000000" class=""></path></g><g id="g1168" transform="translate(429.1315,302.0046)"><path d="m 0,0 c 11.931,-11.931 16.155,-28.639 12.699,-43.965 -15.326,-3.457 -32.035,0.768 -43.965,12.699 -11.931,11.93 -16.156,28.639 -12.699,43.965 C -28.639,16.155 -11.931,11.931 0,0 Z" style="stroke-width:20;stroke-linecap:round;stroke-linejoin:round;stroke-miterlimit:10;stroke-dasharray:none;stroke-opacity:1" id="path1170" fill="none" stroke="#060911" stroke-width="20" stroke-linecap="round" stroke-linejoin="round" stroke-miterlimit="10" stroke-dasharray="none" stroke-opacity="" data-original="#000000" class=""></path></g><g id="g1172" transform="translate(82.8685,302.0046)"><path d="m 0,0 c -11.931,-11.931 -16.155,-28.639 -12.699,-43.965 15.326,-3.457 32.035,0.768 43.965,12.699 11.931,11.93 16.156,28.639 12.699,43.965 C 28.639,16.155 11.931,11.931 0,0 Z" style="stroke-width:20;stroke-linecap:round;stroke-linejoin:round;stroke-miterlimit:10;stroke-dasharray:none;stroke-opacity:1" id="path1174" fill="none" stroke="#060911" stroke-width="20" stroke-linecap="round" stroke-linejoin="round" stroke-miterlimit="10" stroke-dasharray="none" stroke-opacity="" data-original="#000000" class=""></path></g><g id="g1176" transform="translate(55.1315,302.0046)"><path d="m 0,0 c 11.931,-11.931 16.155,-28.639 12.699,-43.965 -15.326,-3.457 -32.035,0.768 -43.965,12.699 -11.931,11.93 -16.156,28.639 -12.699,43.965 C -28.639,16.155 -11.931,11.931 0,0 Z" style="stroke-width:20;stroke-linecap:round;stroke-linejoin:round;stroke-miterlimit:10;stroke-dasharray:none;stroke-opacity:1" id="path1178" fill="none" stroke="#060911" stroke-width="20" stroke-linecap="round" stroke-linejoin="round" stroke-miterlimit="10" stroke-dasharray="none" stroke-opacity="" data-original="#000000" class=""></path></g><g id="g1180" transform="translate(258.1248,299.6281)"><path d="M 0,0 49.874,49.874" style="stroke-width:20;stroke-linecap:round;stroke-linejoin:round;stroke-miterlimit:10;stroke-dasharray:none;stroke-opacity:1" id="path1182" fill="none" stroke="#060911" stroke-width="20" stroke-linecap="round" stroke-linejoin="round" stroke-miterlimit="10" stroke-dasharray="none" stroke-opacity="" data-original="#000000" class=""></path></g><g id="g1184" transform="translate(253.8752,299.6281)"><path d="M 0,0 -49.874,49.874" style="stroke-width:20;stroke-linecap:round;stroke-linejoin:round;stroke-miterlimit:10;stroke-dasharray:none;stroke-opacity:1" id="path1186" fill="none" stroke="#060911" stroke-width="20" stroke-linecap="round" stroke-linejoin="round" stroke-miterlimit="10" stroke-dasharray="none" stroke-opacity="" data-original="#000000" class=""></path></g><g id="g1188" transform="translate(256,356.4123)"><path d="M 0,0 V 67.088" style="stroke-width:20;stroke-linecap:round;stroke-linejoin:round;stroke-miterlimit:10;stroke-dasharray:none;stroke-opacity:1" id="path1190" fill="none" stroke="#060911" stroke-width="20" stroke-linecap="round" stroke-linejoin="round" stroke-miterlimit="10" stroke-dasharray="none" stroke-opacity="" data-original="#000000" class=""></path></g></g></g></g></g></svg>