<svg xmlns="http://www.w3.org/2000/svg" version="1.1" xmlns:xlink="http://www.w3.org/1999/xlink" xmlns:svgjs="http://svgjs.com/svgjs" width="512" height="512" x="0" y="0" viewBox="0 0 682.66669 682.66669" style="enable-background:new 0 0 512 512" xml:space="preserve" class="hovered-paths"><g><defs id="defs5386"><clipPath clipPathUnits="userSpaceOnUse" id="clipPath5396"><path d="M 0,512 H 512 V 0 H 0 Z" id="path5394" fill="#060911" data-original="#000000" class=""></path></clipPath></defs><g id="g5388" transform="matrix(1.3333333,0,0,-1.3333333,0,682.66667)"><g id="g5390"><g id="g5392" clip-path="url(#clipPath5396)"><g id="g5398" transform="translate(262,249.6669)"><path d="m 0,0 v 1.582 c 0,31.782 11.129,62.561 31.454,86.994 v 0 c 20.326,24.434 31.455,55.213 31.455,86.995 v 33.562" style="stroke-width:20;stroke-linecap:round;stroke-linejoin:round;stroke-miterlimit:10;stroke-dasharray:none;stroke-opacity:1" id="path5400" fill="none" stroke="#060911" stroke-width="20" stroke-linecap="round" stroke-linejoin="round" stroke-miterlimit="10" stroke-dasharray="none" stroke-opacity="" data-original="#000000" class="hovered-path"></path></g><g id="g5402" transform="translate(482,104.624)"><path d="m 0,0 v -65.474 c 0,-16.099 -13.051,-29.15 -29.15,-29.15 h -70.998 -19.704 -56.481" style="stroke-width:20;stroke-linecap:round;stroke-linejoin:round;stroke-miterlimit:10;stroke-dasharray:none;stroke-opacity:1" id="path5404" fill="none" stroke="#060911" stroke-width="20" stroke-linecap="round" stroke-linejoin="round" stroke-miterlimit="10" stroke-dasharray="none" stroke-opacity="" data-original="#000000" class="hovered-path"></path></g><g id="g5406" transform="translate(419.0912,458.8)"><path d="m 0,0 v -33.562 c 0,-31.782 11.129,-62.561 31.454,-86.995 v 0 c 20.326,-24.433 31.455,-55.212 31.455,-86.995 v -66.624" style="stroke-width:20;stroke-linecap:round;stroke-linejoin:round;stroke-miterlimit:10;stroke-dasharray:none;stroke-opacity:1" id="path5408" fill="none" stroke="#060911" stroke-width="20" stroke-linecap="round" stroke-linejoin="round" stroke-miterlimit="10" stroke-dasharray="none" stroke-opacity="" data-original="#000000" class="hovered-path"></path></g><g id="g5410" transform="translate(416.3333,502)"><path d="m 0,0 h -88.667 c -11.045,0 -20,-8.954 -20,-20 v 0 c 0,-11.046 8.955,-20 20,-20 H 0 c 11.046,0 20,8.954 20,20 v 0 C 20,-8.954 11.046,0 0,0 Z" style="stroke-width:20;stroke-linecap:round;stroke-linejoin:round;stroke-miterlimit:10;stroke-dasharray:none;stroke-opacity:1" id="path5412" fill="none" stroke="#060911" stroke-width="20" stroke-linecap="round" stroke-linejoin="round" stroke-miterlimit="10" stroke-dasharray="none" stroke-opacity="" data-original="#000000" class="hovered-path"></path></g><g id="g5414" transform="translate(478.6667,252.0883)"><path d="m 0,0 v 0 c -29.349,-29.718 -77.325,-29.719 -106.674,-0.001 l -0.013,0.013 c -29.338,29.707 -77.293,29.719 -106.646,0.028" style="stroke-width:20;stroke-linecap:round;stroke-linejoin:round;stroke-miterlimit:10;stroke-dasharray:none;stroke-opacity:1" id="path5416" fill="none" stroke="#060911" stroke-width="20" stroke-linecap="round" stroke-linejoin="round" stroke-miterlimit="10" stroke-dasharray="none" stroke-opacity="" data-original="#000000" class="hovered-path"></path></g><path d="M 310,174.891 H 30 V 10 h 280 z" style="stroke-width:20;stroke-linecap:round;stroke-linejoin:round;stroke-miterlimit:10;stroke-dasharray:none;stroke-opacity:1" id="path5418" fill="none" stroke="#060911" stroke-width="20" stroke-linecap="round" stroke-linejoin="round" stroke-miterlimit="10" stroke-dasharray="none" stroke-opacity="" data-original="#000000" class="hovered-path"></path><g id="g5420" transform="translate(30,174.8908)"><path d="m 0,0 198.71,81.109 6.385,-0.471 C 247.327,77.521 280,42.347 280,0 v 0" style="stroke-width:20;stroke-linecap:round;stroke-linejoin:round;stroke-miterlimit:10;stroke-dasharray:none;stroke-opacity:1" id="path5422" fill="none" stroke="#060911" stroke-width="20" stroke-linecap="round" stroke-linejoin="round" stroke-miterlimit="10" stroke-dasharray="none" stroke-opacity="" data-original="#000000" class="hovered-path"></path></g><g id="g5424" transform="translate(30,129.75)"><path d="M 0,0 C 17.535,0 31.75,-14.215 31.75,-31.75 31.75,-49.285 17.535,-63.5 0,-63.5" style="stroke-width:20;stroke-linecap:round;stroke-linejoin:round;stroke-miterlimit:10;stroke-dasharray:none;stroke-opacity:1" id="path5426" fill="none" stroke="#060911" stroke-width="20" stroke-linecap="round" stroke-linejoin="round" stroke-miterlimit="10" stroke-dasharray="none" stroke-opacity="" data-original="#000000" class="hovered-path"></path></g><g id="g5428" transform="translate(155.3784,38)"><path d="m 0,0 c 0,-15.464 -12.536,-28 -28,-28 -15.464,0 -28,12.536 -28,28 0,15.464 12.536,28 28,28 C -12.536,28 0,15.464 0,0 Z" style="stroke-width:20;stroke-linecap:round;stroke-linejoin:round;stroke-miterlimit:10;stroke-dasharray:none;stroke-opacity:1" id="path5430" fill="none" stroke="#060911" stroke-width="20" stroke-linecap="round" stroke-linejoin="round" stroke-miterlimit="10" stroke-dasharray="none" stroke-opacity="" data-original="#000000" class="hovered-path"></path></g><g id="g5432" transform="translate(216.9881,118.8908)"><path d="m 0,0 c 0,-11.046 -8.954,-20 -20,-20 -11.046,0 -20,8.954 -20,20 0,11.046 8.954,20 20,20 C -8.954,20 0,11.046 0,0 Z" style="stroke-width:20;stroke-linecap:round;stroke-linejoin:round;stroke-miterlimit:10;stroke-dasharray:none;stroke-opacity:1" id="path5434" fill="none" stroke="#060911" stroke-width="20" stroke-linecap="round" stroke-linejoin="round" stroke-miterlimit="10" stroke-dasharray="none" stroke-opacity="" data-original="#000000" class="hovered-path"></path></g><g id="g5436" transform="translate(268.129,30)"><path d="m 0,0 c 0,-11.046 -8.954,-20 -20,-20 -11.046,0 -20,8.954 -20,20 0,11.046 8.954,20 20,20 C -8.954,20 0,11.046 0,0 Z" style="stroke-width:20;stroke-linecap:round;stroke-linejoin:round;stroke-miterlimit:10;stroke-dasharray:none;stroke-opacity:1" id="path5438" fill="none" stroke="#060911" stroke-width="20" stroke-linecap="round" stroke-linejoin="round" stroke-miterlimit="10" stroke-dasharray="none" stroke-opacity="" data-original="#000000" class="hovered-path"></path></g><g id="g5440" transform="translate(221.7697,251.6497)"><path d="m 0,0 c 5.934,-14.28 -0.833,-30.667 -15.113,-36.6 -14.281,-5.934 -30.667,0.833 -36.601,15.113" style="stroke-width:20;stroke-linecap:round;stroke-linejoin:round;stroke-miterlimit:10;stroke-dasharray:none;stroke-opacity:1" id="path5442" fill="none" stroke="#060911" stroke-width="20" stroke-linecap="round" stroke-linejoin="round" stroke-miterlimit="10" stroke-dasharray="none" stroke-opacity="" data-original="#000000" class="hovered-path"></path></g><g id="g5444" transform="translate(127.3784,118.8908)"><path d="M 0,0 V 0" style="stroke-width:20;stroke-linecap:round;stroke-linejoin:round;stroke-miterlimit:10;stroke-dasharray:none;stroke-opacity:1" id="path5446" fill="none" stroke="#060911" stroke-width="20" stroke-linecap="round" stroke-linejoin="round" stroke-miterlimit="10" stroke-dasharray="none" stroke-opacity="" data-original="#000000" class="hovered-path"></path></g><g id="g5448" transform="translate(273,98.8908)"><path d="M 0,0 V 0" style="stroke-width:20;stroke-linecap:round;stroke-linejoin:round;stroke-miterlimit:10;stroke-dasharray:none;stroke-opacity:1" id="path5450" fill="none" stroke="#060911" stroke-width="20" stroke-linecap="round" stroke-linejoin="round" stroke-miterlimit="10" stroke-dasharray="none" stroke-opacity="" data-original="#000000" class="hovered-path"></path></g><g id="g5452" transform="translate(482,144.6242)"><path d="M 0,0 V 0" style="stroke-width:20;stroke-linecap:round;stroke-linejoin:round;stroke-miterlimit:10;stroke-dasharray:none;stroke-opacity:1" id="path5454" fill="none" stroke="#060911" stroke-width="20" stroke-linecap="round" stroke-linejoin="round" stroke-miterlimit="10" stroke-dasharray="none" stroke-opacity="" data-original="#000000" class="hovered-path"></path></g></g></g></g></g></svg>